<?xml version="1.0" encoding="utf-8"?>
<!-- Generator: Adobe Illustrator 27.0.1, SVG Export Plug-In . SVG Version: 6.00 Build 0)  -->
<svg version="1.1" id="Capa_1" xmlns="http://www.w3.org/2000/svg" xmlns:xlink="http://www.w3.org/1999/xlink" x="0px" y="0px"
	 viewBox="0 0 300 150" style="enable-background:new 0 0 300 150;" xml:space="preserve">
<style type="text/css">
	.st0{fill:#D200FF;}
	.st1{fill:#00AAFF;}
</style>
<g>
	<g>
		<path class="st0" d="M81,53v11.6c0,1.6,0.5,2.9,1.4,4.1l7.1,9.2c0.3,0.4,0.5,1,0.5,1.7c0,1-0.3,1.7-0.9,2.3
			c-0.6,0.6-1.4,0.8-2.2,0.8c-0.9,0-1.6-0.3-2-0.9l-7.2-9.3c-1.8-2.3-2.7-4.7-2.7-7.3V52.3c0-2.5,0.9-5,2.7-7.3l7.2-9.3
			c0.5-0.7,1.2-1,2-1s1.6,0.3,2.2,0.8s1,1.3,1,2.3c0,0.7-0.2,1.3-0.6,1.7l-7.1,9.2C81.4,50,81,51.4,81,53z"/>
		<path class="st0" d="M139.4,64.6V52.9c0-1.5-0.5-2.9-1.4-4.1l-7.2-9.1c-0.4-0.5-0.5-1-0.5-1.7c0-0.9,0.3-1.7,1-2.3
			c0.6-0.6,1.3-0.9,2.1-0.9s1.5,0.3,2,0.9l7.3,9.3c1.8,2.2,2.6,4.7,2.6,7.3v12.9c0,2.7-0.9,5.1-2.6,7.3l-7.3,9.3c-0.5,0.7-1.2,1-2,1
			s-1.5-0.3-2.1-0.9s-0.9-1.4-0.9-2.3c0-0.7,0.2-1.3,0.5-1.7l7.2-9.2C138.9,67.6,139.4,66.2,139.4,64.6z"/>
	</g>
	<g>
		<path class="st1" d="M119.1,76.2h-12.8c-2.2,0-4.2-0.7-5.8-2L94.7,69c-1.9-1.6-2.8-3.7-2.8-6.3v-7.9c-0.1-2.6,1-4.8,3.2-6.7
			l5.2-4.6c1.7-1.4,3.5-2.1,5.4-2.1h13.5c0.8,0,1.5,0.3,2.1,0.9c0.6,0.6,0.9,1.3,0.9,2.1c0,0.9-0.3,1.6-0.9,2.2
			c-0.6,0.6-1.3,0.9-2.1,0.9h-12.9c-0.8,0-1.6,0.3-2.3,1l-4.8,4.1c-0.8,0.7-1.2,1.6-1.2,2.7v7.4c0,0.8,0.3,1.5,0.9,2l5.3,4.5
			c0.7,0.6,1.6,0.9,2.6,0.9h12.3c0.8,0,1.5,0.3,2.1,0.9s0.9,1.3,0.9,2.1c0,0.8-0.3,1.6-0.9,2.1C120.7,75.8,119.9,76.2,119.1,76.2z"
			/>
		<path class="st1" d="M182.9,55.3h-24.3c-0.8,0-1.5-0.3-2.1-0.9s-0.9-1.3-0.9-2.1s0.3-1.5,0.9-2.1c0.6-0.6,1.3-0.9,2.1-0.9h24.3
			c0.8,0,1.5,0.3,2.1,0.9c0.6,0.6,0.9,1.3,0.9,2.1s-0.3,1.6-0.9,2.1C184.5,55,183.8,55.3,182.9,55.3z M182.9,68.3h-24.3
			c-0.8,0-1.5-0.3-2.1-0.9s-0.9-1.3-0.9-2.2c0-0.8,0.3-1.6,0.9-2.1c0.6-0.6,1.3-0.9,2.1-0.9h24.3c0.8,0,1.5,0.3,2.1,0.9
			c0.6,0.6,0.9,1.3,0.9,2.1c0,0.8-0.3,1.6-0.9,2.2C184.5,68,183.8,68.3,182.9,68.3z"/>
		<path class="st1" d="M225,57.6V60c0,1.2-0.6,2.2-1.7,2.9l-23.6,14c-0.7,0.4-1.4,0.7-2,0.7c-0.8,0-1.4-0.3-2-0.9s-0.9-1.3-0.9-2.2
			c0-1.1,0.5-2,1.4-2.5l22-13.2L196,45.7c-0.9-0.6-1.4-1.4-1.4-2.6c0-0.9,0.3-1.6,0.9-2.2s1.3-0.9,2-0.9c0.6,0,1.3,0.2,1.9,0.7
			L223,54.8C224.4,55.5,225,56.4,225,57.6z"/>
	</g>
</g>
<g>
	<g>
		<path class="st1" d="M27.9,117c1.2,0,2.4-0.2,3.6-0.6s2.2-0.9,3.1-1.6l1.3,2.9c-1.1,0.8-2.5,1.4-3.9,1.9s-3,0.7-4.5,0.7
			c-2.3,0-4.1-0.6-5.4-1.8s-1.9-2.9-1.9-5c0-2.5,0.4-4.7,1.3-6.6s2.1-3.3,3.7-4.4s3.4-1.6,5.6-1.6c1.9,0,3.5,0.3,4.6,0.9
			s2,1.6,2.6,3l-2.7,2.2c-0.6-0.9-1.3-1.6-2.1-2s-1.7-0.6-2.8-0.6c-1.3,0-2.4,0.4-3.3,1.1s-1.7,1.7-2.2,3.1s-0.8,2.9-0.8,4.6
			c0,1.2,0.4,2.2,1.1,2.9S26.6,117,27.9,117z"/>
		<path class="st1" d="M48,120.4c-2.1,0-3.7-0.6-4.9-1.8s-1.7-2.8-1.7-5c0-4,0.9-7,2.7-9.3s4.2-3.3,7.4-3.3c2.1,0,3.7,0.6,4.9,1.8
			s1.7,2.9,1.7,5.1c0,3.9-0.9,6.9-2.6,9.1S51.2,120.4,48,120.4z M48.7,117c1.8,0,3.1-0.7,4.1-2.2s1.5-3.5,1.5-6.1
			c0-1.4-0.3-2.4-0.9-3.2s-1.4-1.2-2.5-1.2c-1.8,0-3.2,0.7-4.2,2.2s-1.5,3.5-1.5,6.1c0,1.4,0.3,2.4,0.9,3.2S47.6,117,48.7,117z"/>
		<path class="st1" d="M66.5,120.4c-1.6,0-2.9-0.5-3.8-1.4s-1.3-2.2-1.3-3.9c0-2.1,0.4-4.1,1.3-5.8s2.2-3.2,3.8-4.5s3.5-2.2,5.7-2.8
			s4.5-1,7.1-1h0.3l-2.7,3.3c-2.2,0.1-4.2,0.6-6,1.5s-3.2,2.1-4.2,3.7s-1.6,3.2-1.6,5.1c0,0.8,0.2,1.3,0.6,1.7s1,0.6,1.8,0.6
			c1.6,0,3.1-0.8,4.3-2.3s2.1-3.7,2.7-6.5l-0.2,7.3h-2l1.8-1c-0.6,1.7-1.5,3.1-2.9,4.2S68.3,120.4,66.5,120.4z M78.4,120.2
			c-0.9,0-1.6-0.1-2.2-0.3s-1.1-0.5-1.4-1s-0.6-1-0.7-1.6s-0.1-1.4,0.1-2.3l0.2-5.8L76.2,99c0.2-0.9,0.1-1.6-0.1-2s-0.7-0.6-1.5-0.6
			c-0.3,0-0.6,0-0.9,0s-0.6,0.1-0.9,0.1l-0.4-3c0.4-0.1,0.9-0.2,1.3-0.2s0.9-0.1,1.3-0.1c2,0,3.4,0.5,4.2,1.5s0.9,2.6,0.6,4.7
			l-2.6,14.9c-0.1,0.6-0.1,1.1,0,1.5s0.3,0.7,0.6,0.9s0.7,0.3,1.3,0.3h1.1l-0.5,3.1L78.4,120.2L78.4,120.2z"/>
		<path class="st1" d="M91.7,117c0.9,0,1.9-0.1,3-0.4s2.1-0.7,3.1-1.2l1.2,3c-1.1,0.6-2.4,1.1-3.7,1.5s-2.6,0.5-3.8,0.5
			c-2.4,0-4.3-0.6-5.7-1.9s-2-3-2-5.3c0-2.4,0.5-4.6,1.4-6.4s2.2-3.2,3.9-4.2s3.6-1.5,5.8-1.5c1.7,0,3.1,0.4,4.1,1.3
			s1.5,2.1,1.5,3.6c0,2.3-1.2,4.1-3.5,5.4s-5.6,2-9.8,2.1l-0.4-2.8c3.1,0,5.6-0.5,7.3-1.2s2.6-1.9,2.6-3.3c0-0.6-0.2-1-0.6-1.3
			s-0.9-0.5-1.7-0.5c-1.4,0-2.6,0.4-3.7,1.1s-1.9,1.7-2.5,3s-0.9,2.8-0.9,4.5c0,1.3,0.4,2.3,1.2,3S90.3,117,91.7,117z"/>
		<path class="st1" d="M102.2,120l0.6-3.3h12.4l-0.6,3.3H102.2z M106.4,120l2.3-13.1c0.2-0.9,0.1-1.6-0.1-2s-0.7-0.6-1.5-0.6
			c-1,0-1.9,0.1-2.8,0.4l-0.4-3.2c0.5-0.2,1.1-0.3,1.7-0.4s1.3-0.1,2-0.1c2,0,3.4,0.5,4.2,1.5s0.9,2.6,0.6,4.7l-2.3,12.8
			C110.1,120,106.4,120,106.4,120z M111.4,113.1l0.9-7.5h0.8c0.3-1.5,1-2.6,2-3.4s2.2-1.2,3.6-1.2c1.9,0,3.2,0.6,4.1,1.8
			s1.1,2.8,0.7,5h-3.8c0.2-1.1,0.1-2-0.3-2.6s-0.9-0.8-1.8-0.8s-1.7,0.3-2.5,0.8s-1.5,1.5-2.1,2.8S111.8,111,111.4,113.1z"/>
		<path class="st1" d="M127.5,120.4c-0.7,0-1.3-0.3-1.8-0.8s-0.8-1.1-0.8-1.8c0-0.7,0.3-1.3,0.8-1.8s1.1-0.8,1.8-0.8
			c0.7,0,1.3,0.3,1.8,0.8s0.8,1.1,0.8,1.8c0,0.7-0.3,1.3-0.8,1.8S128.2,120.4,127.5,120.4z"/>
		<path class="st0" d="M144.8,117c1.2,0,2.4-0.2,3.6-0.6s2.2-0.9,3.1-1.6l1.3,2.9c-1.1,0.8-2.5,1.4-3.9,1.9s-3,0.7-4.5,0.7
			c-2.3,0-4.1-0.6-5.4-1.8s-1.9-2.9-1.9-5c0-2.5,0.4-4.7,1.3-6.6s2.1-3.3,3.7-4.4s3.4-1.6,5.6-1.6c1.9,0,3.5,0.3,4.6,0.9
			s2,1.6,2.6,3l-2.7,2.2c-0.6-0.9-1.3-1.6-2.1-2s-1.7-0.6-2.8-0.6c-1.3,0-2.4,0.4-3.3,1.1s-1.7,1.7-2.2,3.1s-0.8,2.9-0.8,4.6
			c0,1.2,0.4,2.2,1.1,2.9S143.6,117,144.8,117z"/>
		<path class="st0" d="M165,120.4c-2.1,0-3.7-0.6-4.9-1.8s-1.7-2.8-1.7-5c0-4,0.9-7,2.7-9.3s4.2-3.3,7.4-3.3c2.1,0,3.7,0.6,4.9,1.8
			s1.7,2.9,1.7,5.1c0,3.9-0.9,6.9-2.6,9.1S168.1,120.4,165,120.4z M165.6,117c1.8,0,3.1-0.7,4.1-2.2s1.5-3.5,1.5-6.1
			c0-1.4-0.3-2.4-0.9-3.2s-1.4-1.2-2.5-1.2c-1.8,0-3.2,0.7-4.2,2.2s-1.5,3.5-1.5,6.1c0,1.4,0.3,2.4,0.9,3.2S164.5,117,165.6,117z"/>
		<path class="st0" d="M178.6,120l3.3-18.6h3.1l-0.1,4.4l-2.5,14.2H178.6z M189.9,120l2.2-12.4c0.2-1.1,0.1-1.9-0.2-2.4
			s-1-0.8-1.9-0.8s-1.8,0.3-2.6,0.8s-1.5,1.5-2.2,2.8s-1.2,3-1.7,5.2l0.9-7.5h0.8c0.4-1.5,1.1-2.6,2.2-3.4s2.4-1.2,4-1.2
			c1.9,0,3.2,0.6,3.9,1.7s0.9,2.8,0.5,5l-2.2,12.3L189.9,120L189.9,120z"/>
		<path class="st0" d="M199.6,120l3.3-18.6h3.1l-0.1,4.4l-2.5,14.2H199.6z M211,120l2.2-12.4c0.2-1.1,0.1-1.9-0.2-2.4
			s-1-0.8-1.9-0.8s-1.8,0.3-2.6,0.8s-1.5,1.5-2.2,2.8s-1.2,3-1.7,5.2l0.9-7.5h0.8c0.4-1.5,1.1-2.6,2.2-3.4s2.4-1.2,4-1.2
			c1.9,0,3.2,0.6,3.9,1.7s0.9,2.8,0.5,5l-2.2,12.3L211,120L211,120z"/>
		<path class="st0" d="M229.7,117c0.9,0,1.9-0.1,3-0.4s2.1-0.7,3.1-1.2l1.2,3c-1.1,0.6-2.4,1.1-3.7,1.5s-2.6,0.5-3.8,0.5
			c-2.4,0-4.3-0.6-5.7-1.9s-2-3-2-5.3c0-2.4,0.5-4.6,1.4-6.4s2.2-3.2,3.9-4.2s3.6-1.5,5.8-1.5c1.7,0,3.1,0.4,4.1,1.3
			s1.5,2.1,1.5,3.6c0,2.3-1.2,4.1-3.5,5.4s-5.6,2-9.8,2.1l-0.4-2.8c3.1,0,5.6-0.5,7.3-1.2s2.6-1.9,2.6-3.3c0-0.6-0.2-1-0.6-1.3
			s-0.9-0.5-1.7-0.5c-1.4,0-2.6,0.4-3.7,1.1s-1.9,1.7-2.5,3s-0.9,2.8-0.9,4.5c0,1.3,0.4,2.3,1.2,3S228.4,117,229.7,117z"/>
		<path class="st0" d="M250.3,117c1.2,0,2.4-0.2,3.6-0.6s2.2-0.9,3.1-1.6l1.3,2.9c-1.1,0.8-2.5,1.4-3.9,1.9s-3,0.7-4.5,0.7
			c-2.3,0-4.1-0.6-5.4-1.8s-1.9-2.9-1.9-5c0-2.5,0.4-4.7,1.3-6.6s2.1-3.3,3.7-4.4s3.4-1.6,5.6-1.6c1.9,0,3.5,0.3,4.6,0.9
			s2,1.6,2.6,3l-2.7,2.2c-0.6-0.9-1.3-1.6-2.1-2s-1.7-0.6-2.8-0.6c-1.3,0-2.4,0.4-3.3,1.1s-1.7,1.7-2.2,3.1s-0.8,2.9-0.8,4.6
			c0,1.2,0.4,2.2,1.1,2.9S249,117,250.3,117z"/>
		<path class="st0" d="M263.9,104.6l0.6-3.3h16.4l-0.6,3.3H263.9z M273,120.4c-2.2,0-3.7-0.5-4.8-1.4s-1.5-2.4-1.5-4.3
			c0-0.5,0-1,0.1-1.4s0.1-1,0.2-1.5s0.2-1.3,0.4-2.1l2.4-13.9h3.8l-2.4,13.9c-0.2,1.2-0.4,2.1-0.5,2.7s-0.2,1.3-0.2,2
			c0,0.9,0.3,1.6,0.8,2s1.3,0.7,2.4,0.7c0.9,0,1.6-0.1,2.2-0.2s1.4-0.4,2.3-0.8l0.7,3c-0.8,0.4-1.7,0.7-2.7,0.9
			S274.2,120.4,273,120.4z"/>
	</g>
</g>
</svg>
